<svg xmlns="http://www.w3.org/2000/svg" width="29.414" height="29.414" viewBox="0 0 29.414 29.414">
  <g id="Icon_feather-image" data-name="Icon feather-image" transform="translate(-3.5 -3.5)">
    <path id="Path_430" data-name="Path 430" d="M7.5,4.5h21a3,3,0,0,1,3,3v21a3,3,0,0,1-3,3H7.5a3,3,0,0,1-3-3V7.5a3,3,0,0,1,3-3Z" fill="none" stroke="#c2c2c2" stroke-linecap="round" stroke-linejoin="round" stroke-width="2"/>
    <path id="Path_431" data-name="Path 431" d="M15,12.75a2.25,2.25,0,1,1-2.25-2.25A2.25,2.25,0,0,1,15,12.75Z" fill="none" stroke="#c2c2c2" stroke-linecap="round" stroke-linejoin="round" stroke-width="2"/>
    <path id="Path_432" data-name="Path 432" d="M31.5,22.5,24,15,7.5,31.5" fill="none" stroke="#c2c2c2" stroke-linecap="round" stroke-linejoin="round" stroke-width="2"/>
  </g>
</svg>
