<svg xmlns="http://www.w3.org/2000/svg" width="25" height="30" viewBox="0 0 25 30">
  <path id="Icon_map-locksmith" data-name="Icon map-locksmith" d="M27.45,13.22H26.1v-5.4A7.65,7.65,0,0,0,18.991.72H13.066C9.519.72,6.1,4.276,6.1,7.825v5.4H4.606A1.34,1.34,0,0,0,3.6,14.258V30.169c0,.374.583.551,1.006.551H27.45c.424,0,1.15-.177,1.15-.551V14.258a1.528,1.528,0,0,0-1.15-1.038Zm-8.4,15H13.014l1.266-6.229a3.232,3.232,0,0,1-1.266-2.566,3.062,3.062,0,0,1,3.016-3.059,2.976,2.976,0,0,1,3.016,2.956,3.475,3.475,0,0,1-1.264,2.686Zm2.679-15H10.475v-5.4a2.555,2.555,0,0,1,2.651-2.73h5.806a2.67,2.67,0,0,1,2.794,2.73Z" transform="translate(-3.6 -0.72)" fill="#484848"/>
</svg>
