<svg xmlns="http://www.w3.org/2000/svg" width="31" height="24.8" viewBox="0 0 31 24.8">
  <path id="Icon_awesome-eye-slash" data-name="Icon awesome-eye-slash" d="M15.5,19.375a6.949,6.949,0,0,1-6.922-6.447L3.5,9a16.144,16.144,0,0,0-1.779,2.693,1.567,1.567,0,0,0,0,1.414A15.536,15.536,0,0,0,15.5,21.7a15.045,15.045,0,0,0,3.773-.507l-2.513-1.945A6.982,6.982,0,0,1,15.5,19.375Zm15.2,2.814-5.355-4.138a16.045,16.045,0,0,0,3.936-4.944,1.567,1.567,0,0,0,0-1.414A15.536,15.536,0,0,0,15.5,3.1,14.926,14.926,0,0,0,8.364,4.926L2.2.163A.775.775,0,0,0,1.114.3L.163,1.523A.775.775,0,0,0,.3,2.611L28.8,24.637a.775.775,0,0,0,1.088-.136l.951-1.224a.775.775,0,0,0-.137-1.087Zm-8.9-6.878-1.9-1.472a4.59,4.59,0,0,0-5.624-5.906A2.308,2.308,0,0,1,14.725,9.3a2.259,2.259,0,0,1-.075.484L11.085,7.029a6.893,6.893,0,0,1,4.415-1.6A6.971,6.971,0,0,1,22.475,12.4a6.81,6.81,0,0,1-.673,2.912Z" transform="translate(0 0)" fill="#484848"/>
</svg>
