<svg xmlns="http://www.w3.org/2000/svg" width="18" height="24" viewBox="0 0 18 24">
  <g id="icon-marker" transform="translate(-480 -250)">
    <path id="Subtraction_2" data-name="Subtraction 2" d="M9,24a1.111,1.111,0,0,1-.925-.485c-1.223-1.772-2.241-3.224-3.14-4.5C.85,13.192,0,11.981,0,9A9,9,0,0,1,15.364,2.636,8.941,8.941,0,0,1,18,9c0,2.983-.851,4.194-4.938,10.017l-.008.012c-.9,1.281-1.918,2.733-3.128,4.487A1.111,1.111,0,0,1,9,24ZM9,1.769A7.548,7.548,0,0,0,1.68,9.158c0,2.5.921,3.828,4.8,9.405l.129.186c.5.721,1.069,1.539,1.681,2.426a.886.886,0,0,0,1.457,0c.606-.878,1.168-1.688,1.665-2.4l.048-.069c3.939-5.673,4.875-7.021,4.875-9.546A7.553,7.553,0,0,0,9,1.769Z" transform="translate(480 250)" fill="#484848"/>
    <g id="Ellipse_6" data-name="Ellipse 6" transform="translate(484.5 254.966)" fill="none" stroke="#484848" stroke-width="1.5">
      <circle cx="4.5" cy="4.5" r="4.5" stroke="none"/>
      <circle cx="4.5" cy="4.5" r="3.75" fill="none"/>
    </g>
  </g>
</svg>
