<svg xmlns="http://www.w3.org/2000/svg" width="26.828" height="26.828" viewBox="0 0 26.828 26.828">
  <g id="Icon_feather-eye-off" data-name="Icon feather-eye-off" transform="translate(-0.086 -0.086)">
    <path id="Path_437" data-name="Path 437" d="M19.98,21.207a10.985,10.985,0,0,1-6.48,2.247c-7.636,0-12-8.727-12-8.727a20.127,20.127,0,0,1,5.52-6.48m4.189-1.985A9.949,9.949,0,0,1,13.5,6c7.636,0,12,8.727,12,8.727a20.182,20.182,0,0,1-2.356,3.48M15.813,17.04a3.273,3.273,0,1,1-4.625-4.625" transform="translate(0 -1.227)" fill="none" stroke="#c2c2c2" stroke-linecap="round" stroke-linejoin="round" stroke-width="2"/>
    <path id="Path_438" data-name="Path 438" d="M1.5,1.5l24,24" transform="translate(0 0)" fill="none" stroke="#c2c2c2" stroke-linecap="round" stroke-linejoin="round" stroke-width="2"/>
  </g>
</svg>
