<svg xmlns="http://www.w3.org/2000/svg" width="20.001" height="20.038" viewBox="0 0 20.001 20.038">
  <path id="Icon_feather-phone" data-name="Icon feather-phone" d="M21.167,16.5v2.715a1.81,1.81,0,0,1-1.973,1.81,17.911,17.911,0,0,1-7.81-2.778,17.648,17.648,0,0,1-5.43-5.43A17.911,17.911,0,0,1,3.175,4.973,1.81,1.81,0,0,1,4.976,3H7.691A1.81,1.81,0,0,1,9.5,4.557,11.621,11.621,0,0,0,10.135,7.1a1.81,1.81,0,0,1-.407,1.91L8.578,10.159a14.481,14.481,0,0,0,5.43,5.43l1.149-1.149a1.81,1.81,0,0,1,1.91-.407,11.621,11.621,0,0,0,2.543.634A1.81,1.81,0,0,1,21.167,16.5Z" transform="translate(-2.167 -2)" fill="none" stroke="#484848" stroke-linecap="round" stroke-linejoin="round" stroke-width="2"/>
</svg>
