<svg xmlns="http://www.w3.org/2000/svg" width="20.723" height="23.028" viewBox="0 0 20.723 23.028">
  <g id="Icon_feather-package" data-name="Icon feather-package" transform="translate(-4 -2.475)">
    <path id="Path_397" data-name="Path 397" d="M21.112,12,11.25,6.315" transform="translate(-1.819 -0.893)" fill="none" stroke="#c2c2c2" stroke-linecap="round" stroke-linejoin="round" stroke-width="1"/>
    <path id="Path_398" data-name="Path 398" d="M24.223,18.341V9.575a2.191,2.191,0,0,0-1.1-1.9L15.457,3.3a2.191,2.191,0,0,0-2.191,0L5.6,7.68a2.191,2.191,0,0,0-1.1,1.9v8.766a2.191,2.191,0,0,0,1.1,1.9l7.67,4.383a2.191,2.191,0,0,0,2.191,0l7.67-4.383a2.191,2.191,0,0,0,1.1-1.9Z" transform="translate(0 0)" fill="none" stroke="#c2c2c2" stroke-linecap="round" stroke-linejoin="round" stroke-width="1"/>
    <path id="Path_399" data-name="Path 399" d="M4.9,10.44l9.566,5.533,9.566-5.533" transform="translate(-0.109 -2.004)" fill="none" stroke="#c2c2c2" stroke-linecap="round" stroke-linejoin="round" stroke-width="1"/>
    <path id="Path_400" data-name="Path 400" d="M18,29.045V18" transform="translate(-3.638 -4.042)" fill="none" stroke="#c2c2c2" stroke-linecap="round" stroke-linejoin="round" stroke-width="1"/>
  </g>
</svg>
