<svg xmlns="http://www.w3.org/2000/svg" viewBox="0 0 194.89 177.37"><defs><style>.cls-1{fill:#484848;}.cls-2{fill:none;stroke:#484848;stroke-linecap:round;stroke-linejoin:round;stroke-width:6px;}</style></defs><g id="Layer_2" data-name="Layer 2"><g id="Layer_1-2" data-name="Layer 1"><g id="Group_150" data-name="Group 150"><path class="cls-1" d="M97,157.64l-12.41,7.09a14.12,14.12,0,0,1-4.22,1.59l-.35-79,35.66-20.77a2.56,2.56,0,0,0,1.1-.64L149,47.16A14.06,14.06,0,0,1,150,52.48V68.06c1.7.35,3.36.78,5,1.28V52.47a19.24,19.24,0,0,0-9.59-16.58L87.08,2.56a19.2,19.2,0,0,0-19.15,0L9.58,35.89a19.16,19.16,0,0,0-6.34,6,2.64,2.64,0,0,0-.53.62,2.9,2.9,0,0,0-.26.67A19.17,19.17,0,0,0,0,52.48v66.67a19.24,19.24,0,0,0,9.59,16.58l58.33,33.33a19.25,19.25,0,0,0,19.15,0l13.44-7.68C99.28,160.19,98.1,158.94,97,157.64ZM70.42,6.89a14.19,14.19,0,0,1,14.17,0l58.33,33.32a14.28,14.28,0,0,1,3.35,2.71L114.9,61.21,45.18,21.31Zm0,157.83L12.08,131.4A14.21,14.21,0,0,1,5,119.14V52.48a14,14,0,0,1,1-5.2L75,87.34l.35,79.11A14.2,14.2,0,0,1,70.41,164.72ZM77.5,83,8.64,43a14.08,14.08,0,0,1,3.43-2.79l28.07-16,69.77,39.92Z"/><g id="Icon_feather-search" data-name="Icon feather-search"><path id="Path_423" data-name="Path 423" class="cls-2" d="M181.4,121.92a42,42,0,1,1-42-42,42,42,0,0,1,42,42Z"/><path id="Path_424" data-name="Path 424" class="cls-2" d="M191.89,174.37l-22.81-22.81"/></g></g></g></g></svg>