<svg xmlns="http://www.w3.org/2000/svg" width="23.607" height="22" viewBox="0 0 23.607 22">
  <g id="product" transform="translate(-9 -25.634)">
    <path id="Path_402" data-name="Path 402" d="M31.17,35.113h-1.19a1.172,1.172,0,0,0-1.119-.86H27.589V31.146a.328.328,0,0,0-.16-.29l-8.964-5.177a.331.331,0,0,0-.333,0L9.166,30.856a.334.334,0,0,0-.166.29V41.5a.335.335,0,0,0,.167.29l8.968,5.177a.335.335,0,0,0,.167.045.352.352,0,0,0,.172-.045l4.719-2.722v1.968a1.417,1.417,0,0,0,1.428,1.42H31.17a1.424,1.424,0,0,0,1.438-1.42V36.556A1.443,1.443,0,0,0,31.17,35.113Zm-2.3-.191a.486.486,0,0,1,.486.486v.032a.486.486,0,0,1-.486.486H26.928a.486.486,0,0,1-.486-.486v-.032a.486.486,0,0,1,.486-.486ZM18.3,26.355l3.726,2.151L13.73,33.3,10,31.145ZM17.984,46.1,9.669,41.308V31.724l8.315,4.791ZM18.3,35.936l-3.9-2.253,8.3-4.791,3.9,2.253Zm4.891.619v6.918L18.653,46.1V36.516l8.267-4.791v2.529h.01a1.172,1.172,0,0,0-1.119.86h-1.19A1.435,1.435,0,0,0,23.193,36.556Zm8.745,9.658a.755.755,0,0,1-.769.751H24.621a.747.747,0,0,1-.759-.751V36.556a.766.766,0,0,1,.759-.773h1.2a1.144,1.144,0,0,0,1.106.812H28.86a1.144,1.144,0,0,0,1.106-.812h1.2a.774.774,0,0,1,.769.773Z" transform="translate(0 0)" fill="#c2c2c2"/>
    <path id="Path_403" data-name="Path 403" d="M337.332,280.246h.35a.335.335,0,1,0,0-.669h-.013v-.908h.923a.322.322,0,0,0,.318.226.336.336,0,0,0,.336-.334v-.225a.339.339,0,0,0-.338-.336h-1.576a.334.334,0,0,0-.332.336v1.576a.332.332,0,0,0,.332.334Z" transform="translate(-312.325 -240.306)" fill="#c2c2c2"/>
    <path id="Path_404" data-name="Path 404" d="M337.334,344.246h1.577a.335.335,0,0,0,.335-.335v-1.577a.335.335,0,0,0-.335-.335h-1.577a.335.335,0,0,0-.335.335v1.577A.335.335,0,0,0,337.334,344.246Zm.335-1.577h.908v.908h-.908Z" transform="translate(-312.326 -301.248)" fill="#c2c2c2"/>
    <path id="Path_405" data-name="Path 405" d="M337.682,407.577h-.013v-.908h.9a.336.336,0,1,0,.672,0v-.322a.349.349,0,0,0-.338-.347h-1.576a.344.344,0,0,0-.332.347v1.576a.323.323,0,0,0,.332.323h.35a.335.335,0,0,0,0-.669Z" transform="translate(-312.325 -362.189)" fill="#c2c2c2"/>
    <path id="Path_406" data-name="Path 406" d="M356.2,284.637l-.98.98-.3-.3a.335.335,0,1,0-.473.473l.535.535a.334.334,0,0,0,.473,0l1.216-1.216a.335.335,0,1,0-.473-.473Z" transform="translate(-328.851 -246.532)" fill="#c2c2c2"/>
    <path id="Path_407" data-name="Path 407" d="M356.2,413.886l-.98.98-.3-.3a.335.335,0,1,0-.473.473l.535.535a.335.335,0,0,0,.473,0l1.216-1.216a.335.335,0,1,0-.473-.473Z" transform="translate(-328.851 -369.605)" fill="#c2c2c2"/>
    <path id="Path_408" data-name="Path 408" d="M416.327,295h-2.1a.335.335,0,0,0,0,.669h2.1a.335.335,0,1,0,0-.669Z" transform="translate(-385.542 -256.494)" fill="#c2c2c2"/>
    <path id="Path_409" data-name="Path 409" d="M416.327,359h-2.1a.335.335,0,0,0,0,.669h2.1a.335.335,0,1,0,0-.669Z" transform="translate(-385.542 -317.435)" fill="#c2c2c2"/>
    <path id="Path_410" data-name="Path 410" d="M416.327,423h-2.1a.335.335,0,0,0,0,.669h2.1a.335.335,0,1,0,0-.669Z" transform="translate(-385.542 -378.377)" fill="#c2c2c2"/>
  </g>
</svg>
