<svg xmlns="http://www.w3.org/2000/svg" width="118.003" height="118.012" viewBox="0 0 118.003 118.012">
  <g id="profit" transform="translate(-0.499 0)">
    <path id="Path_411" data-name="Path 411" d="M209.511,352.022a3.011,3.011,0,1,0-3.011-3.011A3.012,3.012,0,0,0,209.511,352.022Zm0,0" transform="translate(-159.11 -267.243)" fill="#fff"/>
    <path id="Path_412" data-name="Path 412" d="M1.175,89.678l27.659,27.659a2.3,2.3,0,0,0,3.259,0l15.212-15.212a2.3,2.3,0,0,0,0-3.259l-.675-.675H79.855a11.5,11.5,0,0,0,7.85-3.087L115.668,68.9A8.9,8.9,0,0,0,104.9,54.829L98.688,58.9C98.645,46.408,91.094,33.085,80.7,27.087a6.926,6.926,0,0,0-3.055-11.123c-.113-.038-.227-.071-.34-.106L83.238,5.2a2.3,2.3,0,0,0-1.37-3.334,47.259,47.259,0,0,0-26.285,0A2.3,2.3,0,0,0,54.212,5.2l5.933,10.658c-.115.036-.23.07-.346.108a6.914,6.914,0,0,0-3.043,11.119c-10.549,6.087-18,19.548-18,31.921,0,.338.008.671.019,1a28.323,28.323,0,0,0-11.194,6l-7,6.129-.935-.935a2.3,2.3,0,0,0-3.259,0L1.174,86.418a2.3,2.3,0,0,0,0,3.259ZM59.7,5.574a42.747,42.747,0,0,1,18.057,0L72.617,14.8a28.1,28.1,0,0,0-7.784,0Zm1.541,14.77a23.851,23.851,0,0,1,14.967,0,2.306,2.306,0,0,1-.576,4.493,22.548,22.548,0,0,0-13.809,0h0a2.3,2.3,0,0,1-.581-4.486Zm1.275,9.116a17.984,17.984,0,0,1,12.144-.1c10.709,3.682,19.422,16.98,19.422,29.642a22.185,22.185,0,0,1-.2,3.052L82.8,69.327a9.166,9.166,0,0,0-7.16-3.406H71.03v-2.7a6.914,6.914,0,0,0-2.3-13.433,2.3,2.3,0,1,1,0-4.61,3.7,3.7,0,0,1,2.493,1.2,2.3,2.3,0,1,0,3.205-3.312,8.9,8.9,0,0,0-3.393-2.122V38.261a2.3,2.3,0,1,0-4.61,0v2.7a6.914,6.914,0,0,0,2.3,13.433,2.3,2.3,0,0,1,0,4.61,4.171,4.171,0,0,1-2.993-1.744A2.3,2.3,0,0,0,62.2,60.228a9.555,9.555,0,0,0,4.216,3v2.69h-.767c-1.133,0-1.641-.738-2.439-1.254a28.276,28.276,0,0,0-19.841-5.515c0-.049,0-.1,0-.146,0-12.485,8.588-25.739,19.143-29.545ZM30.622,69.48a23.7,23.7,0,0,1,29.824-1.126,8.174,8.174,0,0,0,5.206,2.177H75.64a4.61,4.61,0,0,1,0,9.22H59.505a2.3,2.3,0,1,0,0,4.61H75.64a9.211,9.211,0,0,0,9.085-10.783l22.634-14.851a4.289,4.289,0,0,1,5.164,6.8L84.561,91.731a6.9,6.9,0,0,1-4.706,1.848H42.02L23.848,75.407ZM18.017,76.095l24.4,24.4L30.463,112.447l-24.4-24.4Zm0,0" transform="translate(0 0)" fill="#fff"/>
  </g>
</svg>
