<svg xmlns="http://www.w3.org/2000/svg" width="22.338" height="22" viewBox="0 0 22.338 22">
  <g id="support" transform="translate(-0.001 -0.5)">
    <path id="Path_413" data-name="Path 413" d="M21.812,224.548a2.023,2.023,0,0,0-1.248-.523,1.786,1.786,0,0,0-1.373.523l-2.484,2.458a1.649,1.649,0,0,0-.168-.24,1.61,1.61,0,0,0-1.258-.563H11.8a7.131,7.131,0,0,1-1.9-.253,4.677,4.677,0,0,0-4.363.923,6.346,6.346,0,0,0-1.136,1.22l-.623-.605a.443.443,0,0,0-.307-.125h0a.444.444,0,0,0-.315.135L.124,230.645a.44.44,0,0,0,.013.623l5.126,4.881a.439.439,0,0,0,.618-.011l3-3.08a.442.442,0,0,0-.009-.625l-.261-.254.6-.067a9.513,9.513,0,0,1,1.094-.063H15.6a3.972,3.972,0,0,0,2.17-.559l.014-.01a2.928,2.928,0,0,0,.561-.509l3.565-4.194a1.535,1.535,0,0,0-.1-2.228ZM5.555,235.213l-4.491-4.277,2.42-2.512,4.465,4.333Zm15.682-9.006L17.672,230.4a2.053,2.053,0,0,1-.386.352,3.125,3.125,0,0,1-1.69.416h-5.29a10.371,10.371,0,0,0-1.194.069l-1.315.148-2.754-2.673A5.481,5.481,0,0,1,6.1,227.555a3.783,3.783,0,0,1,3.573-.757,8.009,8.009,0,0,0,2.135.284h3.477a.794.794,0,0,1,.791.861.952.952,0,0,1-.206.61.747.747,0,0,1-.6.251H12.24a.439.439,0,0,0,0,.879h3.027a1.63,1.63,0,0,0,1.269-.561A1.8,1.8,0,0,0,16.95,228l2.861-2.831a1.029,1.029,0,0,1,1.405.023.662.662,0,0,1,.021,1.013Zm0,0" transform="translate(0 -213.771)" fill="#c2c2c2"/>
    <path id="Path_414" data-name="Path 414" d="M230.105,333.56a.439.439,0,1,0-.856.2l0,.018a.44.44,0,0,0,.427.339.445.445,0,0,0,.1-.012.439.439,0,0,0,.328-.528Zm0,0" transform="translate(-219.236 -318.205)" fill="#c2c2c2"/>
    <path id="Path_415" data-name="Path 415" d="M44.755,9.771h4.282a1.057,1.057,0,0,0,.624-.2,1.057,1.057,0,0,0,.624.2h4.282a1.057,1.057,0,0,0,.624-.2,1.057,1.057,0,0,0,.624.2H60.1a1.065,1.065,0,0,0,1.064-1.064v-2a2.3,2.3,0,0,0-1.253-2.06,2.535,2.535,0,1,0-3.9,0,2.3,2.3,0,0,0-.814.7,2.3,2.3,0,0,0-.814-.7,2.535,2.535,0,1,0-3.9,0,2.3,2.3,0,0,0-.814.7,2.3,2.3,0,0,0-.814-.7,2.535,2.535,0,1,0-3.9,0,2.3,2.3,0,0,0-1.253,2.06v2a1.065,1.065,0,0,0,1.064,1.064Zm13.2-8.392A1.656,1.656,0,1,1,56.3,3.035,1.658,1.658,0,0,1,57.958,1.379ZM56.816,5.3a2.526,2.526,0,0,0,2.283,0A1.428,1.428,0,0,1,60.283,6.71v2a.185.185,0,0,1-.185.185H55.817a.185.185,0,0,1-.185-.185v-2A1.428,1.428,0,0,1,56.816,5.3ZM52.427,1.379a1.656,1.656,0,1,1-1.656,1.656A1.658,1.658,0,0,1,52.427,1.379ZM51.285,5.3a2.526,2.526,0,0,0,2.283,0A1.428,1.428,0,0,1,54.753,6.71v2a.185.185,0,0,1-.185.185H50.286a.185.185,0,0,1-.185-.185v-2A1.428,1.428,0,0,1,51.285,5.3ZM46.9,1.379A1.656,1.656,0,1,1,45.24,3.035,1.658,1.658,0,0,1,46.9,1.379ZM44.57,6.71A1.428,1.428,0,0,1,45.754,5.3a2.526,2.526,0,0,0,2.283,0A1.428,1.428,0,0,1,49.222,6.71v2a.185.185,0,0,1-.185.185H44.755a.185.185,0,0,1-.185-.185Zm0,0" transform="translate(-41.784 0)" fill="#c2c2c2"/>
  </g>
</svg>
