<svg xmlns="http://www.w3.org/2000/svg" width="150" height="157.9" viewBox="0 0 150 157.9">
  <g id="worker" transform="translate(0 0)">
    <path id="Path_425" data-name="Path 425" d="M53.733,98.208H44.474a5.236,5.236,0,0,1-5.231-5.231V87.816a.693.693,0,0,0-.535-.657,39.2,39.2,0,0,1-9.2-3.822.631.631,0,0,0-.769.076L25.052,87.1a5.232,5.232,0,0,1-7.4,0l-6.547-6.547a5.229,5.229,0,0,1,0-7.4l3.685-3.686a.627.627,0,0,0,.076-.769,39.251,39.251,0,0,1-3.821-9.2.693.693,0,0,0-.657-.535H5.23A5.237,5.237,0,0,1,0,53.734V44.474A5.237,5.237,0,0,1,5.23,39.244h5.161a.692.692,0,0,0,.657-.535,39.246,39.246,0,0,1,3.822-9.2.631.631,0,0,0-.076-.769l-3.686-3.686a5.229,5.229,0,0,1,0-7.4l6.547-6.547a5.232,5.232,0,0,1,7.4,0l3.685,3.685a.631.631,0,0,0,.769.076,39.245,39.245,0,0,1,9.2-3.822.692.692,0,0,0,.536-.657V5.231A5.237,5.237,0,0,1,44.474,0h9.259a5.237,5.237,0,0,1,5.231,5.231v5.161a.69.69,0,0,0,.535.655,39.271,39.271,0,0,1,9.2,3.824.632.632,0,0,0,.77-.076l3.685-3.686a5.229,5.229,0,0,1,7.4,0l.693.693a2.313,2.313,0,0,1-3.271,3.271C77.548,14.7,77,13.8,76.426,14.38L72.74,18.065a5.271,5.271,0,0,1-6.343.817,34.665,34.665,0,0,0-8.115-3.372,5.335,5.335,0,0,1-3.945-5.12V5.231a.605.605,0,0,0-.6-.6H44.473a.6.6,0,0,0-.6.6v5.161a5.336,5.336,0,0,1-3.945,5.12,34.649,34.649,0,0,0-8.116,3.371,5.269,5.269,0,0,1-6.341-.817L21.782,14.38a.6.6,0,0,0-.854,0l-6.549,6.547a.6.6,0,0,0,0,.854l3.686,3.686a5.269,5.269,0,0,1,.817,6.341,34.674,34.674,0,0,0-3.372,8.116,5.334,5.334,0,0,1-5.119,3.944H5.23a.606.606,0,0,0-.6.6v9.259a.605.605,0,0,0,.6.6h5.161a5.336,5.336,0,0,1,5.12,3.944A34.577,34.577,0,0,0,18.882,66.4a5.269,5.269,0,0,1-.817,6.341L14.38,76.426a.59.59,0,0,0-.177.428.6.6,0,0,0,.177.428l6.547,6.546a.6.6,0,0,0,.855,0l3.685-3.685a5.271,5.271,0,0,1,6.343-.817A34.644,34.644,0,0,0,39.925,82.7a5.335,5.335,0,0,1,3.945,5.12v5.16a.6.6,0,0,0,.6.6h9.259a.605.605,0,0,0,.6-.6v-5.16a5.335,5.335,0,0,1,3.945-5.12A2.313,2.313,0,0,1,59.5,87.16a.694.694,0,0,0-.536.658v5.16a5.237,5.237,0,0,1-5.231,5.231Zm0,0"/>
    <path id="Path_426" data-name="Path 426" d="M88.535,110.3a21.828,21.828,0,0,1,29.551-20.38,2.314,2.314,0,0,1-1.648,4.324,17.176,17.176,0,1,0-5.078,33.2,2.313,2.313,0,0,1,.272,4.619,21.824,21.824,0,0,1-23.1-21.763Zm0,0" transform="translate(-61.231 -61.195)"/>
    <path id="Path_427" data-name="Path 427" d="M192.584,146.165l-23.436-4.557v-5.791a24.464,24.464,0,0,0,10.92-17.99,6.651,6.651,0,0,0,6.113-6.621v-4.754a6.307,6.307,0,0,0-1.075-11.92V92.7a29.869,29.869,0,0,0-29.868-29.869h-2.5A29.868,29.868,0,0,0,122.866,92.7v1.836a6.307,6.307,0,0,0-1.075,11.92v4.754a6.651,6.651,0,0,0,6.113,6.621,24.4,24.4,0,0,0,8.2,15.9,30.4,30.4,0,0,0,2.717,2.09v5.791l-23.436,4.557c-12.365,2.4-22,9.375-22,22.236v23.526a9.426,9.426,0,0,0,9.425,9.425H205.161a9.426,9.426,0,0,0,9.425-9.425V168.4c0-12.819-9.578-19.821-22-22.236Zm-19.252.969c-1.679,2.442-4.246,6.169-7.02,10.183a3.366,3.366,0,0,1-3.95,1.371l-3.654-2.191c3.563-2.1,8.494-5.719,9.99-10.264ZM153.986,153.8c-3.513-1.768-10.516-6.138-10.535-10.268V138.37a26.561,26.561,0,0,0,21.071,0v5.143c0,4.137-7.02,8.516-10.536,10.286ZM127.492,92.7a25.259,25.259,0,0,1,13.021-22.081v2.9a2.313,2.313,0,0,0,4.626,0V68.622a25.079,25.079,0,0,1,6.533-1.144V78.914a2.313,2.313,0,0,0,4.626,0V67.477a25.088,25.088,0,0,1,6.534,1.144v4.893a2.313,2.313,0,0,0,4.626,0v-2.9A25.259,25.259,0,0,1,180.48,92.7v1.672H127.493Zm-3.2,6.3h59.383a1.675,1.675,0,0,1,0,3.35H124.3A1.675,1.675,0,0,1,124.3,98.994Zm8.088,16.491a2.313,2.313,0,0,0-2.313-2.264c-.386-.1-3.654.6-3.654-2.015v-4.234h55.138v4.234c0,2.612-3.355,1.942-3.654,2.015a2.314,2.314,0,0,0-2.313,2.264,19.946,19.946,0,0,1-6.741,14.736,22.206,22.206,0,0,1-29.721,0,19.943,19.943,0,0,1-6.743-14.736Zm6.89,30.747c1.5,4.545,6.427,8.159,9.992,10.264-3.662,1.961-3.4,2.548-5.067,2.352a3.648,3.648,0,0,1-2.556-1.558c-2.766-4-5.325-7.721-7-10.157Zm-26.687,50.494h-9.775a4.8,4.8,0,0,1-4.8-4.8V168.4c0-6.932,3.149-11.724,10.057-15.034a95.134,95.134,0,0,1,4.518,28.809Zm39.087,0H117.212V182.175a97.059,97.059,0,0,0-4.83-30.529c2.7-.9.7-.206,17.306-3.55,4.774,6.938,13.684,19.882,18.936,27.348a16.646,16.646,0,0,1,3.048,9.63Zm2.313-21.326a21.775,21.775,0,0,0-1.577-2.618c-1.776-2.523-4.08-5.833-6.485-9.3a6.933,6.933,0,0,0,2.066-.824l6-3.6,6,3.6a6.92,6.92,0,0,0,2.066.824c-2.4,3.468-4.709,6.779-6.485,9.3a21.625,21.625,0,0,0-1.578,2.618Zm55.974,16.527a4.8,4.8,0,0,1-4.8,4.8h-9.775V188a2.313,2.313,0,0,0-4.626,0v8.727H156.3V185.073a16.648,16.648,0,0,1,3.048-9.629c2.988-4.247,15.289-22,18.938-27.349,16.6,3.343,14.6,2.652,17.305,3.55a100.872,100.872,0,0,0-4.766,27.007,2.313,2.313,0,0,0,4.622.166,92.5,92.5,0,0,1,4.457-25.453c6.908,3.31,10.057,8.1,10.057,15.033Zm0,0" transform="translate(-64.586 -43.452)"/>
  </g>
</svg>
